-:::RESIDENT EVIL EXTINCTION (2007) 1080p AUD-HINDI DD-5.1Ch ORG (BY-GPSOFT):::-

VIDEO :- HD-1080p FROM MY OWN BLU-RAY
AUDIO :- HINDI 5.1CH ORIGINAL FROM MY SONY-DVD

-::: ENGLISH AUDIO IS SAPRATE :::-

Format: Matroska (MKV)
Duration: 1h 34mn
Total Size: 3.43 GB (3,693,115,723 bytes)

===================================================================================
-:::IMDB INFO:::-

Tmdb Link: http://www.themoviedb.org/movie/7737
Imdb Link: http://www.imdb.com/title/tt0432021
Release date: 21/09/07
Genre: Adventure | Horror | Action | Science Fiction | Foreign
Studio: Davis-Films | Constantin Film Produktion GmbH | Impact Pictures
Trailer:
Homepage: http://www.sonypictures.com/movies/resi ... index.html
Storyline: Years after the Raccoon City disaster, Alice is on her own; aware that she has become a liability and could endanger those around her, she is struggling to survive and bring down the Umbrella Corporation led by the sinister Albert Wesker and head researcher Dr. Isaacs. Meanwhile, traveling through the Nevada Desert and the ruins of Las Vegas, Carlos Olivera, L.J., and new survivors K-Mart, Claire Redfield, and Nurse Betty must fight to survive extinction against hordes of zombies, killer crows and the most terrifying creatures created as a result of the deadly T-Virus that has killed millions.

-:::CAST INFO:::-

Milla Jovovich ... Alice
Oded Fehr ... Carlos Olivera
Ali Larter ... Claire Redfield
Iain Glen ... Dr. Isaacs
Mike Epps ... L.J.

-:::GENERAL INFO:::-

Complete name : RESIDENT EVIL EXTINCTION (2007) 1080p AUD-HINDI DD-5.1Ch ORG (BY-GPSOFT).mkv
Format : Matroska
Format version : Version 2
File size : 3.10 GiB
Duration : 1h 30mn
Overall bit rate : 4 913 Kbps
Movie name : RESIDENT EVIL EXTINCTION (2007) 1080p AUD-HINDI DD-5.1Ch ORG (BY-GPSOFT)
Encoded date : UTC 2012-01-22 15:09:59
Writing application : mkvmerge v5.1.0 (\\\\\\\\\\\\\\\\\\\\\\\\\\\\\\\'And so it goes\\\\\\\\\\\\\\\\\\\\\\\\\\\\\\\') built on Nov 28 2011 23:58:28
Writing library : libebml v1.2.3 + libmatroska v1.3.0

-:::Video:::-

ID : 1
Format : AVC
Format/Info : Advanced Video Codec
Format profile : High@L4.0
Format settings, CABAC : Yes
Format settings, ReFrames : 4 frames
Muxing mode : Header stripping
Codec ID : V_MPEG4/ISO/AVC
Duration : 1h 30mn
Bit rate : 4 500 Kbps
Width : 1 920 pixels
Height : 800 pixels
Display aspect ratio : 2.40:1
Frame rate mode : Variable
Frame rate : 25.000 fps
Color space : YUV
Chroma subsampling : 4:2:0
Bit depth : 8 bits
Scan type : Progressive
Bits/(Pixel*Frame) : 0.117
Stream size : 2.79 GiB (90%)
Title : RESIDENT EVIL EXTINCTION - (2007) AUDIO HINDI-ENG DD-5.1Ch (ORIGINAL BY-GPSOFT)
Writing library : x264 core 112
Encoding settings : cabac=1 / ref=3 / deblock=1:0:0 / analyse=0x3:0x113 / me=hex / subme=7 / psy=1 / psy_rd=1.00:0.00 / mixed_ref=1 / me_range=16 / chroma_me=1 / trellis=1 / 8x8dct=1 / cqm=0 / deadzone=21,11 / fast_pskip=1 / chroma_qp_offset=-2 / threads=6 / sliced_threads=0 / nr=0 / decimate=1 / interlaced=0 / constrained_intra=0 / bframes=3 / b_pyramid=2 / b_adapt=2 / b_bias=0 / direct=1 / weightb=1 / open_gop=0 / weightp=2 / keyint=240 / keyint_min=23 / scenecut=40 / intra_refresh=0 / rc_lookahead=50 / rc=abr / mbtree=1 / bitrate=4500 / ratetol=1.0 / qcomp=0.60 / qpmin=3 / qpmax=51 / qpstep=4 / ip_ratio=1.40 / aq=1:1.00
Language : English
Default : Yes
Forced : No
Color primaries : BT.709-5, BT.1361, IEC 61966-2-4, SMPTE RP177
Transfer characteristics : BT.709-5, BT.1361
Matrix coefficients : BT.709-5, BT.1361, IEC 61966-2-4 709, SMPTE RP177

-:::Audio #1:::-

Audio
ID : 2
Format : AC-3
Format/Info : Audio Coding 3
Mode extension : CM (complete main)
Muxing mode : Header stripping
Codec ID : A_AC3
Duration : 1h 30mn
Bit rate mode : Constant
Bit rate : 384 Kbps
Channel(s) : 6 channels
Channel positions : Front: L C R, Side: L R, LFE
Sampling rate : 48.0 KHz
Bit depth : 16 bits
Compression mode : Lossy
Stream size : 248 MiB (8%)
Title : HINDI DD-5.1Ch (ORIGINAL BY-GPSOFT)
Language : Hindi
Default : No
Forced : No

-:::Menu:::-

00:00:00.000 : en:Chapter 1
00:07:32.367 : en:Chapter 2
00:13:39.317 : en:Chapter 3
00:18:25.436 : en:Chapter 4
00:25:13.386 : en:Chapter 5
00:30:07.805 : en:Chapter 6
00:32:17.726 : en:Chapter 7
00:38:53.497 : en:Chapter 8
00:44:21.783 : en:Chapter 9
00:50:56.052 : en:Chapter 10
00:55:23.652 : en:Chapter 11
01:01:46.160 : en:Chapter 12
01:08:50.375 : en:Chapter 13
01:14:42.185 : en:Chapter 14
01:19:12.246 : en:Chapter 15
01:24:15.382 : en:Chapter 16


***********************************************************************************
CLICK FOR SAMPLE CLIP

SAMPLE CLIP - 47.31 MB :-


EVIL EXTINCTION (2007) =SAMPLE=.mkv



***********************************************************************************
JOIN US WITH FACEBOOK 


PLEASE SAY THANKS IF U LIKE THIS POST TO ALIVE TORRENT

AND SEED 24HR AFTER 100% DOWNLOAD PLEASE
